<svg xmlns="http://www.w3.org/2000/svg" width="94" height="95" viewBox="0 0 94 95">
    <defs>
        <linearGradient id="a" x1="-166.355%" x2="183.123%" y1="221.374%" y2="-13.452%">
            <stop offset="0%" stop-color="#8D8D9B"/>
            <stop offset="26%" stop-color="#9495A3"/>
            <stop offset="67%" stop-color="#A9ACB9"/>
            <stop offset="100%" stop-color="#BDC3CE"/>
        </linearGradient>
        <linearGradient id="b" x1="-151.114%" x2="217.252%" y1="-78.459%" y2="157.471%">
            <stop offset="0%" stop-color="#FFF" stop-opacity="0"/>
            <stop offset="18%" stop-color="#FFF" stop-opacity=".23"/>
            <stop offset="40%" stop-color="#FFF" stop-opacity=".5"/>
            <stop offset="60%" stop-color="#FFF" stop-opacity=".72"/>
            <stop offset="78%" stop-color="#FFF" stop-opacity=".87"/>
            <stop offset="92%" stop-color="#FFF" stop-opacity=".97"/>
            <stop offset="100%" stop-color="#FFF"/>
        </linearGradient>
    </defs>
    <g fill="none" fill-rule="evenodd">
        <path fill="url(#a)" fill-rule="nonzero" d="M10.651 94.826H2.395A2.4 2.4 0 0 1 0 92.42V64.792a2.4 2.4 0 0 1 2.395-2.405h8.256a2.4 2.4 0 0 1 2.395 2.405v27.629a2.4 2.4 0 0 1-2.395 2.405zm21.974-2.832V52.593a2.826 2.826 0 0 0-2.82-2.832h-7.407a2.826 2.826 0 0 0-2.82 2.832v39.4a2.826 2.826 0 0 0 2.82 2.833h7.4a2.814 2.814 0 0 0 1.999-.828c.53-.531.828-1.252.828-2.004zm19.572-.283V43.375a3.114 3.114 0 0 0-3.101-3.12h-6.844a3.114 3.114 0 0 0-3.107 3.12v48.33a3.114 3.114 0 0 0 3.107 3.12h6.844a3.114 3.114 0 0 0 3.1-3.12v.006zm19.572-.379V29.715c0-1.933-1.56-3.5-3.484-3.5h-6.083a3.492 3.492 0 0 0-3.485 3.5v61.611c0 1.933 1.56 3.5 3.485 3.5h6.083a3.492 3.492 0 0 0 3.484-3.5v.006z"/>
        <path fill="url(#b)" fill-rule="nonzero" d="M10.651 94.826H2.395A2.4 2.4 0 0 1 0 92.42V64.792a2.4 2.4 0 0 1 2.395-2.405h8.256a2.4 2.4 0 0 1 2.395 2.405v27.629a2.4 2.4 0 0 1-2.395 2.405zm21.974-2.832V52.593a2.826 2.826 0 0 0-2.82-2.832h-7.407a2.826 2.826 0 0 0-2.82 2.832v39.4a2.826 2.826 0 0 0 2.82 2.833h7.4a2.814 2.814 0 0 0 1.999-.828c.53-.531.828-1.252.828-2.004zm19.572-.283V43.375a3.114 3.114 0 0 0-3.101-3.12h-6.844a3.114 3.114 0 0 0-3.107 3.12v48.33a3.114 3.114 0 0 0 3.107 3.12h6.844a3.114 3.114 0 0 0 3.1-3.12v.006zm19.572-.379V29.715c0-1.933-1.56-3.5-3.484-3.5h-6.083a3.492 3.492 0 0 0-3.485 3.5v61.611c0 1.933 1.56 3.5 3.485 3.5h6.083a3.492 3.492 0 0 0 3.484-3.5v.006z"/>
        <path fill="#FF9801" fill-rule="nonzero" d="M92.27 30.665h-1.377v-7.558a6.85 6.85 0 0 0-2.006-4.81c-7.305-7.336-6.778-13.228-7.023-16.583A1.83 1.83 0 0 0 80.068.006H58.076a1.8 1.8 0 0 0-1.796 1.702c-.221 3.33.695 8.934-6.945 16.613a6.737 6.737 0 0 0-1.946 4.81v34.675a6.737 6.737 0 0 0 1.946 4.81c7.352 7.383 6.712 13.228 6.957 16.559a1.8 1.8 0 0 0 1.796 1.66h22.016a1.8 1.8 0 0 0 1.796-1.66c.245-3.331.03-9.554 7.005-16.56a6.79 6.79 0 0 0 2.006-4.81V41.524h1.377c.443.012.872-.158 1.189-.47.317-.31.495-.738.493-1.183v-7.54a1.651 1.651 0 0 0-.495-1.198 1.637 1.637 0 0 0-1.205-.467z"/>
        <path stroke="#FFF" stroke-linejoin="round" stroke-width="1.197" d="M51.209 55.755V25.05c0-2.391 1.93-4.33 4.31-4.33h27.237M59.34 70.222h19.74M61.896 76.084h11.675M60.25 11.634h13.699M60.8 5.405h5.659"/>
    </g>
</svg>
