<svg xmlns="http://www.w3.org/2000/svg" width="103" height="79" viewBox="0 0 103 79">
    <defs>
        <linearGradient id="a" x1="-138.212%" x2="111.847%" y1="-209.385%" y2="135.225%">
            <stop offset="0%" stop-color="#8D8D9B"/>
            <stop offset="26%" stop-color="#9495A3"/>
            <stop offset="67%" stop-color="#A9ACB9"/>
            <stop offset="100%" stop-color="#BDC3CE"/>
        </linearGradient>
        <linearGradient id="b" x1="161.106%" x2="-37.945%" y1="-102.779%" y2="170.916%">
            <stop offset="0%" stop-color="#FFF" stop-opacity="0"/>
            <stop offset="18%" stop-color="#FFF" stop-opacity=".23"/>
            <stop offset="40%" stop-color="#FFF" stop-opacity=".5"/>
            <stop offset="60%" stop-color="#FFF" stop-opacity=".72"/>
            <stop offset="78%" stop-color="#FFF" stop-opacity=".87"/>
            <stop offset="92%" stop-color="#FFF" stop-opacity=".97"/>
            <stop offset="100%" stop-color="#FFF"/>
        </linearGradient>
    </defs>
    <g fill="none" fill-rule="evenodd">
        <ellipse cx="30.52" cy="48.732" fill="url(#a)" fill-rule="nonzero" rx="29.929" ry="29.808" transform="rotate(-89.73 30.52 48.732)"/>
        <ellipse cx="30.52" cy="48.732" fill="url(#b)" fill-rule="nonzero" rx="29.929" ry="29.808" transform="rotate(-89.73 30.52 48.732)"/>
        <path stroke="#FFF" stroke-linejoin="round" stroke-width="1.184" d="M30.693 57.6c-.048-2.182-.207-7.73-.284-9.917M30.586 78.7c.113-4.994.16-10.577.136-15.57M53.548 64.067c0 1.863-.02 3.726-.059 5.589M52.34 42.86a147.91 147.91 0 0 1 1.137 15.329M22.074 26.777c10.253-4.062 22.802.154 28.029 9.958M7.737 50.837c-.16-8.548 1.995-15.865 9.17-21.17M8.287 71.4c0-4.462-.19-8.925-.337-13.388M47.735 62.416c-.041 3.732-.13 7.464-.213 11.201M39.033 33.139c8.915 4.268 8.69 15.5 8.726 23.818M13.532 47.648c.296-10.335 9.424-18.424 19.902-16.567M13.721 74.036c.119-7.157.13-14.314 0-21.472M42.029 71.524c-.036 1.404-.077 3.98-.119 5.383M41.845 50.047c.32 5.306.373 10.583.314 15.877M21.008 41.47c4.641-8.331 17.89-6.126 20.287 2.835M19.41 58.708c-.047-2.317-.177-7.393-.254-9.71M19.327 76.966c.083-4.174.119-8.943.1-13.117M36.37 68.046c0 3.113-.06 7.41-.125 10.524"/>
        <path stroke="#FFF" stroke-linejoin="round" stroke-width="1.184" d="M24.643 78.517c0-4.558.42-18.907.326-23.47-.06-2.883-.51-6.12.242-8.956.622-2.69 3.228-4.444 5.967-4.015 2.871.313 4.209 2.742 4.7 5.306.83 4.398.432 9.233.474 13.69"/>
        <rect width="72.195" height="50.46" x="30.355" fill="#FF9801" fill-rule="nonzero" rx="2.368"/>
        <path stroke="#FFF" stroke-linejoin="round" stroke-width="1.184" d="M47.19 24.107h-9.11a2.109 2.109 0 0 1-2.113-2.105v-6.674M35.257 29.914H47.19M51.719 29.914h11.934M68.181 29.914H80.11M84.638 29.914H96.57M91.664 36.257a4.198 4.198 0 0 0-3.179 1.474 4.214 4.214 0 0 0-4.646-1.187 4.187 4.187 0 0 0-2.738 3.923 4.187 4.187 0 0 0 2.738 3.923 4.214 4.214 0 0 0 4.646-1.188 4.215 4.215 0 0 0 5.105.986 4.18 4.18 0 0 0 2.16-4.711 4.2 4.2 0 0 0-4.092-3.196l.006-.024z"/>
    </g>
</svg>
